<svg width="94" height="94" viewBox="0 0 94 94" fill="none" xmlns="http://www.w3.org/2000/svg">
<circle cx="47" cy="47" r="47" fill="white"/>
<path d="M78.9182 36.4682C78.8861 31.7643 77.3534 27.1932 74.5426 23.4192C74.505 23.3408 74.4526 23.2703 74.3883 23.2116C72.5098 20.7029 70.2265 18.524 67.6319 16.7643C67.5641 16.7101 67.4927 16.6606 67.4182 16.616V16.616C63.3964 13.94 58.8648 12.1227 54.1073 11.2778H54.0479C54.0169 11.2689 53.984 11.2689 53.9529 11.2778V11.2778C52.7655 11.0524 51.4891 10.8922 50.2304 10.7855C50.1354 8.16381 49.5952 6.54455 48.9599 5.53622C48.7657 5.1636 48.4968 4.83492 48.17 4.57063C47.8431 4.30633 47.4653 4.11209 47.06 4H46.8997H46.7929C46.387 4.11234 46.0085 4.30663 45.6807 4.57085C45.3529 4.83508 45.0828 5.16362 44.8871 5.53622C44.2459 6.54455 43.6997 8.16974 43.6165 10.7914C31.2734 11.8353 20.9964 18.5793 16.8999 27.7017C16.8765 27.7496 16.8567 27.7992 16.8405 27.8499C15.629 30.5746 15.0021 33.5224 15 36.5038C15 43.568 18.4375 50.1459 24.6893 55.0511C24.2608 57.8114 24.5281 60.6349 25.467 63.266V63.266C23.9946 68.0111 22.6885 74.067 25.1702 79.2154C25.1712 79.2312 25.1712 79.2471 25.1702 79.2629C28.0318 85.1349 33.6364 86.7245 39.0569 88.2548C41.6372 88.881 44.1489 89.7612 46.5554 90.8824L46.6385 90.918H46.692C46.7472 90.9237 46.8029 90.9237 46.8582 90.918H46.9472C47.0551 90.9191 47.1614 90.8926 47.256 90.8409C49.663 89.7071 52.1768 88.815 54.7604 88.1777C57.8477 87.3058 61.0002 86.3983 63.666 84.7197L63.7431 84.6663C65.8625 83.3381 67.5626 81.4381 68.6471 79.1858C71.1585 74.0314 69.8345 68.0526 68.4453 63.4202C68.4354 63.3878 68.4193 63.3576 68.3978 63.3313C69.8108 59.903 69.419 56.2137 69.2349 54.98C75.4807 50.0985 78.9182 43.5324 78.9182 36.4682ZM77.5824 36.4682C77.5811 38.3872 77.3073 40.2964 76.769 42.1386C75.8199 40.205 74.5983 38.4173 73.1415 36.83C70.4401 33.8643 65.6608 30.2047 57.907 28.7693C62.9937 26.8288 68.254 25.377 73.6164 24.4335C76.1614 27.9342 77.548 32.1418 77.5824 36.4682V36.4682ZM72.7318 23.2413C65.7622 24.4948 58.9795 26.6253 52.5459 29.5819C52.1303 26.2188 50.6341 23.5734 48.6512 22.6066C48.7165 22.3694 48.7699 22.144 48.8233 21.9186C54.7221 19.9389 60.8169 18.5986 67.0026 17.9209C69.1592 19.409 71.0889 21.2011 72.7318 23.2413V23.2413ZM64.9602 66.0538L64.604 66.3681C63.3322 67.3623 61.836 68.0302 60.2462 68.3136H60.169H60.0444H60.0087C56.6899 68.9067 52.3915 68.4619 47.161 66.9257H47.0897H46.8285H46.7751C44.3926 67.653 41.9481 68.1594 39.4725 68.4382H39.3656C34.7288 68.889 31.2378 68.0704 28.9402 65.9707C26.2744 63.6457 25.7757 59.9979 25.7757 57.5304C26.9046 59.6538 28.5893 61.4312 30.6501 62.6729C34.0639 64.6896 38.3682 65.0454 43.4563 63.8058C43.7851 64.4369 44.2815 64.9655 44.8909 65.3338C45.5003 65.702 46.1994 65.8957 46.9116 65.8936V65.8936C47.6231 65.8959 48.3215 65.7023 48.93 65.334C49.5385 64.9656 50.0337 64.4369 50.361 63.8058C55.4491 65.0692 59.7594 64.6896 63.1673 62.6729C65.2309 61.4347 66.9164 59.6564 68.0416 57.5304C68.0891 59.9979 67.5903 63.6456 64.9602 66.0538ZM61.9917 84.2215C59.6887 85.3587 57.2678 86.2398 54.7723 86.8491C53.634 85.77 52.6563 84.5336 51.8691 83.1776C50.6816 81.0482 51.2753 78.7053 52.16 76.487C52.3084 76.1074 52.4865 75.6981 52.6765 75.2711C53.4008 73.6281 54.2676 71.647 53.9708 69.8142C54.9441 69.9316 55.9233 69.993 56.9037 69.9981C57.8877 70.0014 58.8705 69.926 59.8425 69.7727C60.2165 70.8285 59.6822 72.6435 59.2013 74.2746C58.7925 75.4005 58.5466 76.5789 58.471 77.7741C58.4695 79.0575 58.7912 80.3207 59.4064 81.4474C60.0217 82.5741 60.9107 83.528 61.9917 84.2215ZM46.9532 89.5597C45.9914 88.8479 42.6607 86.1017 42.0195 81.6117C41.4258 77.5309 43.1772 73.0943 47.1788 68.4145C48.9457 68.9196 50.7421 69.3158 52.5577 69.6007V69.6007C53.0327 71.1073 52.1956 73.0113 51.4535 74.7017C51.2575 75.1525 51.0735 75.5795 50.9191 75.9769C49.9395 78.4977 49.233 81.1906 50.7054 83.8063C51.4253 85.0534 52.2967 86.2069 53.2999 87.2405C51.1166 87.8206 48.9904 88.5968 46.9472 89.5597H46.9532ZM62.5023 61.5459C59.3082 63.4321 55.1641 63.7168 50.2126 62.4001C50.1254 62.3712 50.0331 62.3608 49.9416 62.3694C49.8501 62.3781 49.7614 62.4055 49.681 62.4501C49.6007 62.4947 49.5305 62.5554 49.4748 62.6285C49.4192 62.7015 49.3793 62.7853 49.3577 62.8746C49.1824 63.3726 48.8559 63.8037 48.4239 64.1077C47.9919 64.4118 47.4757 64.5737 46.9472 64.5709C46.4145 64.575 45.894 64.4109 45.4601 64.1021C45.0261 63.7932 44.7009 63.3553 44.5309 62.8508C44.5083 62.7651 44.4681 62.685 44.4129 62.6156C44.3577 62.5461 44.2887 62.4889 44.2103 62.4475C44.1254 62.402 44.0321 62.3743 43.9361 62.3662C43.8401 62.358 43.7435 62.3695 43.6522 62.4001C38.7125 63.7109 34.5863 63.4262 31.3862 61.5459C28.8804 60.0002 27.0073 57.6137 26.1023 54.8139C26.6425 53.7225 29.2905 48.7639 35.2394 42.9986C35.8746 42.6309 43.949 38.2179 58.667 43.0342C64.5743 48.7698 67.2697 53.7818 67.7981 54.8198C66.8814 57.6124 65.0027 59.9895 62.4964 61.5281L62.5023 61.5459ZM42.5776 31.4859C42.5776 28.0872 43.8184 25.0978 45.5045 24.0005C45.688 23.8705 45.8876 23.7648 46.0982 23.6861C46.3079 23.6072 46.5278 23.5593 46.7513 23.5438H47.0007C47.2276 23.5491 47.4522 23.5911 47.6656 23.6684C47.8748 23.7376 48.0744 23.8333 48.2593 23.9531C49.7614 24.8843 50.9251 27.3102 51.1922 30.1988C51.2384 30.6262 51.2602 31.0559 51.2575 31.4859C51.2575 31.557 51.2575 31.6342 51.2575 31.7113C51.2473 32.8135 51.0957 33.9098 50.8063 34.9735C50.68 35.4152 50.5273 35.849 50.3492 36.2725C49.5477 38.1764 48.2949 39.428 46.9057 39.428C45.5164 39.428 44.2637 38.1824 43.4622 36.2784C43.2704 35.8366 43.1136 35.3805 42.9932 34.9142C42.7013 33.7952 42.5615 32.6421 42.5776 31.4859V31.4859ZM43.9847 39.4576C41.976 39.5481 39.9842 39.8665 38.0476 40.4066V40.4066C39.3241 39.3212 40.7549 38.2002 42.3342 37.0732C42.7316 37.9634 43.2913 38.7719 43.9847 39.4576V39.4576ZM49.6783 39.6474C50.4659 38.9293 51.0913 38.0517 51.5128 37.0732C53.2939 38.3603 54.9444 39.6711 56.4168 40.9582C54.2073 40.3507 51.9546 39.9125 49.6783 39.6474ZM49.1261 20.4002C49.6468 18.0325 49.9921 15.6297 50.1592 13.2114C51.3466 12.9801 52.5637 12.7606 53.8164 12.5589C57.8301 13.2838 61.6822 14.7179 65.1918 16.7939C59.7353 17.4907 54.3565 18.6981 49.1261 20.4002V20.4002ZM45.9142 6.31322C46.1333 5.88437 46.474 5.52952 46.8938 5.29303C47.3121 5.53145 47.6523 5.88579 47.8734 6.31322C48.3128 7.05464 48.764 8.3714 48.859 10.6431C48.859 11.0583 48.859 11.5032 48.859 11.9836V12.12C48.859 12.553 48.8233 13.0038 48.7937 13.502C48.5785 15.995 48.1816 18.469 47.6062 20.9043C47.5112 21.3373 47.4163 21.7762 47.3094 22.233C47.1719 22.2115 47.0329 22.2016 46.8938 22.2033C46.731 22.2061 46.5685 22.218 46.407 22.2389C46.3417 21.9601 46.2704 21.6873 46.2111 21.4085C45.6649 19.0935 45.2683 16.7457 45.0236 14.3799C44.9761 13.9054 44.9405 13.4546 44.9227 13.0275C44.9049 12.6005 44.8871 12.3158 44.8811 11.9836C44.8811 11.5032 44.8811 11.0583 44.8811 10.649C45.0236 8.37141 45.4808 7.05464 45.9142 6.31322V6.31322ZM43.5869 12.0785C43.5869 12.4878 43.6166 12.9207 43.6462 13.3656C31.4634 16.6753 23.9234 21.5627 20.088 24.6352C24.7902 17.82 33.4523 12.9682 43.5869 12.0785ZM18.016 28.3541C18.485 27.85 21.1211 25.1215 26.3279 22.0135C31.7849 18.8183 37.6481 16.3724 43.759 14.7417C44.0309 17.1528 44.4472 19.5454 45.0058 21.9067C38.4154 24.4298 32.3308 28.112 27.0403 32.7789C21.697 37.6189 18.9778 42.1267 17.8795 44.2976C16.8137 41.7719 16.2765 39.055 16.301 36.3141C16.3255 33.5732 16.9112 30.8663 18.022 28.3601L18.016 28.3541ZM18.6097 45.8635C19.4409 43.9891 25.3958 31.8121 43.5928 23.9175C42.162 25.5901 41.2477 28.3245 41.2477 31.4799C41.2336 32.9132 41.4337 34.3406 41.8414 35.7149C31.2734 43.1528 26.4585 51.2017 25.1345 53.6988C22.438 51.567 20.2141 48.8989 18.6038 45.8635H18.6097ZM26.3279 64.9743C26.8009 65.7319 27.3718 66.4239 28.0259 67.0324C29.1366 68.036 30.4508 68.7886 31.879 69.2389V69.2389C30.4814 69.6808 29.1969 70.4216 28.1149 71.4098C26.7931 72.6812 25.8744 74.3127 25.4729 76.1015C24.5883 72.4359 25.3186 68.4382 26.2982 64.9743H26.3279ZM26.4585 78.7884C26.8385 69.8202 35.2394 69.9566 35.6075 69.9685C35.6702 69.9707 35.7327 69.9606 35.7915 69.9388V69.9388C36.2368 69.9388 36.694 69.9744 37.1571 69.9388C34.4023 72.1097 32.734 74.6246 32.1996 77.442C31.7662 79.9807 32.1508 82.5914 33.298 84.8977C30.4482 83.6817 28.0021 81.9201 26.4288 78.7884H26.4585ZM35.275 85.6747C34.7822 84.9214 32.7874 81.5761 33.5355 77.7029C34.1292 74.6958 36.1893 72.0444 39.6981 69.8202C41.5254 69.6238 43.3353 69.2907 45.1127 68.8237C41.6039 73.3493 40.1137 77.7207 40.7074 81.8015C41.0705 84.1728 42.0859 86.3967 43.6403 88.2252C42.2451 87.7388 40.8202 87.3354 39.4191 86.938C38.0179 86.5406 36.5871 86.1373 35.275 85.6747ZM63.3157 83.403C62.2652 82.8704 61.3829 82.0576 60.7667 81.0546C60.1505 80.0515 59.8244 78.8976 59.8247 77.7207C59.9105 76.6656 60.1361 75.6264 60.4956 74.6305C61.0418 72.8036 61.5939 70.9234 61.1843 69.488C62.2866 69.2202 63.343 68.7905 64.319 68.2128V68.2128C64.319 73.3315 67.1391 75.5321 68.3147 76.232C68.1142 77.0687 67.8256 77.8818 67.4538 78.6579C66.5179 80.5841 65.0804 82.2231 63.2919 83.403H63.3157ZM68.5937 74.8084C67.436 73.9603 65.3936 71.7953 65.7024 67.1985L65.8924 67.0324C66.5244 66.453 67.0774 65.7929 67.5369 65.0692C68.3562 68.0704 69.0271 71.5106 68.5699 74.8084H68.5937ZM68.7421 53.7166C67.4419 51.261 62.6448 43.2418 52.0234 35.7742C52.4528 34.3857 52.6651 32.9392 52.6527 31.4859C52.6527 31.3435 52.6527 31.1952 52.6527 31.0588C53.5848 30.608 54.5467 30.1691 55.5381 29.7598C64.1884 30.7919 69.3358 34.6295 72.1322 37.6841C73.8531 39.5242 75.2126 41.6711 76.1397 44.0129C74.542 47.831 71.986 51.1732 68.7184 53.7166H68.7421Z" fill="#3F4E65" stroke="#3F4E65" stroke-width="1.5" stroke-linejoin="round"/>
<path d="M38.0645 51.3843C36.0875 51.3843 34.3182 52.2502 33.6533 53.5433C33.5742 53.7008 33.5603 53.8831 33.6148 54.0507C33.6692 54.2184 33.7876 54.3578 33.9442 54.4389C34.0384 54.4854 34.1419 54.5097 34.247 54.5101C34.3697 54.5104 34.4902 54.4768 34.595 54.4129C34.6998 54.349 34.7848 54.2574 34.8407 54.1483C35.2741 53.306 36.6218 52.7129 38.0645 52.7129C39.5072 52.7129 40.8549 53.306 41.2943 54.1483C41.3339 54.2263 41.3885 54.2958 41.4551 54.3526C41.5216 54.4095 41.5988 54.4527 41.6821 54.4797C41.7654 54.5067 41.8532 54.517 41.9405 54.51C42.0278 54.503 42.1128 54.4788 42.1908 54.4389C42.3489 54.3578 42.4684 54.2173 42.5229 54.0483C42.5775 53.8792 42.5627 53.6955 42.4817 53.5373C41.8049 52.2502 40.0237 51.3843 38.0645 51.3843Z" fill="#3F4E65" stroke="#3F4E65" stroke-width="1.5" stroke-linejoin="round"/>
<path d="M55.7981 51.3843C53.8211 51.3843 52.0459 52.2502 51.3869 53.5433C51.3461 53.621 51.3213 53.706 51.3139 53.7934C51.3065 53.8808 51.3166 53.9688 51.3437 54.0523C51.3708 54.1357 51.4143 54.2129 51.4717 54.2793C51.5291 54.3457 51.5992 54.4 51.6778 54.4389C51.772 54.4854 51.8756 54.5097 51.9806 54.5101C52.1034 54.5104 52.2238 54.4768 52.3286 54.4129C52.4334 54.349 52.5184 54.2574 52.5743 54.1483C53.0077 53.306 54.3554 52.7129 55.7981 52.7129C57.2408 52.7129 58.5886 53.306 59.0279 54.1483C59.0675 54.2263 59.1221 54.2958 59.1887 54.3526C59.2552 54.4095 59.3324 54.4527 59.4157 54.4797C59.499 54.5067 59.5868 54.517 59.6741 54.51C59.7614 54.503 59.8464 54.4788 59.9244 54.4389C60.0814 54.3567 60.1999 54.2161 60.2543 54.0475C60.3087 53.8789 60.2947 53.6957 60.2153 53.5373C59.5444 52.2502 57.7692 51.3843 55.7981 51.3843Z" fill="#3F4E65" stroke="#3F4E65" stroke-width="1.5" stroke-linejoin="round"/>
</svg>
